<svg width="1080" height="1080" viewBox="0 0 1080 1080" fill="none" xmlns="http://www.w3.org/2000/svg">
<g clip-path="url(#clip0_0_1)">
<path d="M90 434.184C90 396.546 103.135 365.03 129.404 339.818C155.674 314.606 190.268 302 233.187 302C276.384 302 311.163 314.606 337.71 339.818C364.257 365.03 377.576 396.456 377.576 434.184C377.576 471.372 364.257 502.437 337.71 527.379C311.163 552.321 276.291 564.837 233.187 564.837C190.268 564.837 155.674 552.321 129.404 527.379C103.135 502.437 90 471.372 90 434.184ZM179.076 831.455L521.596 309.744H600.034L257.144 831.455H179.076ZM188.14 434.184C188.14 450.211 192.303 462.187 200.72 470.111C209.045 478.035 219.96 481.907 233.279 481.907C247.154 481.907 258.346 477.945 266.856 470.111C275.366 462.187 279.621 450.211 279.621 434.184C279.621 417.346 275.366 405.01 266.856 396.906C258.346 388.892 247.154 384.84 233.279 384.84C219.96 384.84 209.045 388.892 200.72 397.086C192.303 405.28 188.14 417.706 188.14 434.184ZM401.163 710.347C401.163 672.709 414.206 641.194 440.383 615.801C466.56 590.499 501.061 577.803 543.98 577.803C586.9 577.803 621.586 590.499 648.133 615.801C674.68 641.104 688 672.619 688 710.347C688 747.535 674.68 778.6 648.133 803.542C621.586 828.484 586.9 841 543.98 841C501.061 841 466.56 828.484 440.383 803.542C414.206 778.6 401.163 747.535 401.163 710.347ZM498.101 710.347C498.101 726.645 502.264 738.621 510.681 746.274C519.006 753.928 530.198 757.71 544.073 757.71C557.948 757.71 569.14 753.928 577.835 746.274C586.437 738.621 590.785 726.645 590.785 710.347C590.785 693.779 586.437 681.443 577.835 673.339C569.232 665.235 557.948 661.093 544.073 661.093C530.198 661.093 519.099 665.145 510.681 673.159C502.264 681.173 498.101 693.599 498.101 710.347Z" fill="#6ACCCD"/>
<g filter="url(#filter0_i_0_1)">
<path d="M796.086 480.196C796.954 483.71 797.117 487.481 796.779 491.51C809.323 488.908 824.197 483.61 842.108 474.922C848.473 458.763 839.28 456.487 839.28 456.487L829.24 459.025C817.875 464.004 805.305 469.323 793.151 472.981C794.534 475.01 795.511 477.473 796.086 480.196Z" fill="#FFD7B6"/>
<path d="M733.127 455.423C733.127 455.423 733.955 473.576 748.468 484.842C749.264 485.463 750.06 485.996 750.856 486.529C759.813 492.485 773.301 495.765 793.669 492.008C794.109 487.979 793.944 484.209 793.177 480.607C792.602 477.972 791.623 475.597 790.34 473.656C778.491 476.966 767.36 478.354 758.569 475.994C757.57 475.722 756.572 475.362 755.675 475.003C748.192 471.954 742.848 465.33 741.157 453.744C735.139 454.565 733.127 455.423 733.127 455.423Z" fill="#FFD7B6"/>
<path d="M741.157 453.743C742.175 452 744.245 445.006 745.272 442.386C746.298 439.765 747.334 436.269 747.334 436.269C747.334 436.269 742.301 438.852 742.276 441.482C741.342 434.46 743.42 426.59 743.42 426.59C743.42 426.59 728.289 437.847 728.281 438.723C728.272 439.6 726.219 444.84 733.127 455.423C740.113 458.117 741.157 453.743 741.157 453.743Z" fill="#FFD7B6"/>
<path d="M688.49 566.864L780.444 596.638L823.723 512.007L718.291 477.815L688.49 566.864Z" fill="#01DBDE"/>
<path d="M746.118 489.729C746.836 487.983 747.653 486.412 748.468 484.842C750.507 481.179 752.942 477.87 755.675 475.003C763.871 466.312 774.527 462.028 783.413 464.914C787.607 466.268 790.885 469.015 793.253 472.807C792.248 473.148 791.344 473.403 790.34 473.656C788.366 470.57 785.583 468.441 782.389 467.359C780.89 466.907 779.29 466.63 777.688 466.615C771.38 466.557 764.435 470.087 758.669 475.995C755.736 478.948 753.098 482.518 750.957 486.53C750.242 487.839 749.629 489.236 749.014 490.632C742.045 507.136 745.692 523.649 757.173 527.349C758.672 527.801 760.272 528.079 761.874 528.093C772.389 528.19 784.501 518.484 790.548 504.076C792.289 500.059 793.331 495.949 793.769 492.008C794.772 491.842 795.776 491.589 796.879 491.424C796.436 495.89 795.29 500.525 793.343 505.066C786.885 520.522 773.565 530.831 761.648 530.721C759.746 530.703 757.845 530.423 756.049 529.793C742.968 525.64 738.535 507.629 746.118 489.729Z" fill="#01DBDE"/>
<path d="M793.177 480.695C794.044 484.21 794.208 488.068 793.668 492.096C794.671 491.929 795.675 491.676 796.779 491.511C797.117 487.569 796.953 483.798 796.086 480.196C795.411 477.473 794.434 475.009 793.152 472.894C792.147 473.235 791.243 473.49 790.239 473.743C791.522 475.684 792.502 478.059 793.177 480.695Z" fill="#01DBDE"/>
<path d="M975.733 623.622C967.836 606.56 971.241 589.266 983.337 584.996C995.434 580.726 1011.64 591.095 1019.54 608.158C1027.43 625.22 1024.02 642.513 1011.93 646.783C999.837 651.054 983.63 640.684 975.733 623.622Z" stroke="#01DBDE" stroke-width="3" stroke-miterlimit="10"/>
<path d="M1001.88 711.317L1071.02 686.97L1036.31 599.255L957.12 627.191L1001.88 711.317Z" fill="#01DBDE"/>
<path d="M1075.04 685.605L1122.29 635.286L1043.88 572.677L989.738 630.472L1075.04 685.605Z" fill="#01DBDE"/>
<path d="M1004.11 619.51C987.851 607.82 981.381 591.193 989.655 582.372C997.928 573.551 1017.81 575.877 1034.06 587.567C1050.32 599.257 1056.79 615.884 1048.52 624.705C1040.25 633.525 1020.37 631.2 1004.11 619.51Z" stroke="#01DBDE" stroke-width="3" stroke-miterlimit="10"/>
<path d="M888.159 372.697C892.69 370.197 916.534 379.796 921.018 382.204C929.09 386.398 936.248 391.899 942.096 398.264C954.088 411.435 960.732 428.678 976.464 438.377C985.225 443.805 995.818 446.182 1004.99 451.087C1017.34 457.688 1026.24 468.727 1030.33 480.861C1034.43 492.996 1033.7 506.226 1029.38 518.283C1026.7 525.709 1022.52 532.946 1015.76 538.056C1009.11 543.079 1000.67 545.719 992.333 548.184C972.143 554.31 951.252 560.429 929.935 558.918C923.93 558.512 917.831 557.404 912.851 554.553C909.662 552.771 907.082 550.38 904.602 547.903C899.643 542.861 895.291 537.123 893.35 530.706C891.409 524.289 891.773 517.63 891.837 510.969C891.935 490.282 888.139 468.508 873.775 452.071C868.723 446.327 862.561 441.274 858.817 434.84C853.007 424.531 854.732 411.836 861.437 401.992C868.142 392.149 867.06 379.603 879.122 375.156C886.76 372.334 908.357 376.126 915.228 380.222" fill="black"/>
<path d="M827.929 564.115C814.731 582.665 773.289 778.288 766.552 791.463C783.332 796.175 783.332 796.175 783.332 796.175C783.332 796.175 823.927 709.504 824.87 673.923C839.651 636.541 883.198 555.332 883.198 555.332L857.112 539.226L827.929 564.115Z" fill="#FFD7B6"/>
<path d="M766.153 791.284C760.054 800.607 737.308 822.663 717.362 824.233C709.344 824.86 720.794 831.89 739.251 828.905C750.586 827.08 760.952 821.829 768.736 814.362L772.273 810.976L773.925 826.682L778.936 826.289L783.734 796.004L766.153 791.284Z" fill="#01DBDE"/>
<path d="M765.442 792.329L767.515 784.985L773.987 788.901L770.078 799.735L765.442 792.329Z" fill="#01DBDE" fill-opacity="0.5"/>
<path d="M832.374 612.193C834.977 622.736 862.784 678.48 904.074 717.254C948.503 752.639 986.435 786.473 989.374 793.338C1005.16 786.47 1006.1 783.323 1006.1 783.323C1006.1 783.323 945.621 719.039 917.93 692.925C898.645 657.07 865.009 572.17 865.009 572.17L833.518 576.526L832.374 612.193Z" fill="#F9C7A2"/>
<path d="M980.68 780.986C985.794 790.675 992.257 816.419 982.097 831.49C978.032 837.589 991.191 833.59 999.246 818.674C1004.14 809.515 1006.11 802.521 1003.7 792.681L1002.64 788.2L1018.19 796.145L1020.73 792.399L995.395 771.303L980.68 780.986Z" fill="#01DBDE"/>
<path d="M984.019 787.854L972.492 778.368L982.95 773.994L990.875 783.096L984.019 787.854Z" fill="#01DBDE" fill-opacity="0.5"/>
<path d="M901.115 452.235C899.112 462.648 855.906 477.24 853.253 482.3C845.524 484.07 829.543 458.764 829.543 458.764C829.543 458.764 861.786 438.637 875.887 440.783C890.087 443.017 901.115 452.235 901.115 452.235Z" fill="#01DBDE"/>
<path d="M978.967 573.745C985.962 575.387 998.331 580.585 998.331 580.585L997.22 591.971L986.421 590.118C986.421 590.118 993.783 595.358 992.24 599.551C990.651 598.134 969.326 586.893 969.598 579.444C969.771 571.907 978.967 573.745 978.967 573.745Z" fill="#FFD7B6"/>
<path d="M835.375 550.158L878.344 560.196L898.677 497.445L908.989 445.821C906.722 441.943 904.347 438.941 901.754 437.953L901.653 437.952C897.662 436.337 892.371 434.623 886.669 433.869C886.669 433.869 845.121 463.554 841.056 469.74C836.99 475.926 835.939 481.089 841.387 497.706C843.337 503.247 835.375 550.158 835.375 550.158Z" fill="#01DBDE"/>
<path d="M928.861 472.652C939.109 490.103 977.152 554.268 979.476 572.873C970.814 577.965 970.814 577.965 970.814 577.965C970.814 577.965 933.791 501.625 912.707 486.178C910.549 471.081 928.861 472.652 928.861 472.652Z" fill="#FFD7B6"/>
<path d="M909.901 496.759C909.901 496.759 911.713 495.811 914.332 494.258C922.187 489.772 937.602 480.183 935.848 475.171C931.257 473.551 918.137 452.655 906.82 442.207C903.345 439.019 900.061 436.885 897.261 436.509L897.16 436.508C897.16 436.508 889.474 444.326 887.551 456.756C885.628 469.274 909.901 496.759 909.901 496.759Z" fill="#01DBDE" fill-opacity="0.83"/>
<path d="M881.752 424.532C881.776 432.422 879.006 439.233 879.006 439.233L878.954 444.668C878.954 444.668 891.306 441.275 893.04 437.872C894.776 434.47 894.646 416.674 894.646 416.674L884.085 421.398L881.752 424.532Z" fill="#FFD7B6"/>
<path d="M863.817 405.637C863.845 394.502 872.117 385.506 882.294 385.544C892.471 385.581 900.7 394.638 900.673 405.773C900.646 416.907 892.374 425.903 882.197 425.866C872.02 425.828 863.791 416.771 863.817 405.637Z" fill="#FFE3CA"/>
<path d="M862.963 389.12C872.86 401.484 887.741 395.397 895.476 424.22C909.897 424.265 920.57 407.971 920.602 394.209C920.635 380.447 902.689 371.867 888.168 371.821C873.746 371.776 862.996 375.358 862.963 389.12Z" fill="black"/>
<path d="M881.431 395.427C886.905 398.896 894.646 416.674 904.1 412.641C913.453 408.607 919.814 392.887 919.814 392.887L900.257 385.256L886.963 382.504L881.495 388.677L881.431 395.427Z" fill="black"/>
<path d="M890.498 412.318C887.593 411.524 886.113 408.408 887.194 405.358C888.275 402.308 891.507 400.479 894.412 401.273C897.318 402.067 898.797 405.183 897.716 408.233C896.635 411.283 893.403 413.111 890.498 412.318Z" fill="#FFE3CA"/>
<path d="M839.43 531.447C837.473 549.552 718.726 660.803 712.818 672.666C719.368 686.753 725.333 773.331 846.514 733.481C922.721 711.838 974.796 789.406 1018.41 727.367C999.262 678.777 903.908 547.681 894.974 538.04C886.152 528.401 839.43 531.447 839.43 531.447Z" fill="black"/>
<path d="M837.529 534.4L892.583 537.536L889.705 524.361L838.623 524.767L837.529 534.4Z" fill="white"/>
<path d="M891.735 417.436C888.97 417.411 886.747 415.428 886.769 413.007C886.793 410.587 889.053 408.646 891.819 408.671C894.585 408.696 896.808 410.679 896.784 413.1C896.761 415.52 894.5 417.461 891.735 417.436Z" fill="#BFF6F7"/>
</g>
</g>
<defs>
<filter id="filter0_i_0_1" x="688.49" y="371.821" width="433.8" height="466.41" filterUnits="userSpaceOnUse" color-interpolation-filters="sRGB">
<feFlood flood-opacity="0" result="BackgroundImageFix"/>
<feBlend mode="normal" in="SourceGraphic" in2="BackgroundImageFix" result="shape"/>
<feColorMatrix in="SourceAlpha" type="matrix" values="0 0 0 0 0 0 0 0 0 0 0 0 0 0 0 0 0 0 127 0" result="hardAlpha"/>
<feOffset dy="4"/>
<feGaussianBlur stdDeviation="2"/>
<feComposite in2="hardAlpha" operator="arithmetic" k2="-1" k3="1"/>
<feColorMatrix type="matrix" values="0 0 0 0 0 0 0 0 0 0 0 0 0 0 0 0 0 0 0.25 0"/>
<feBlend mode="normal" in2="shape" result="effect1_innerShadow_0_1"/>
</filter>
<clipPath id="clip0_0_1">
<rect width="1080" height="1080" fill="white"/>
</clipPath>
</defs>
</svg>
