<svg width="662" height="255" viewBox="0 0 662 255" fill="none" xmlns="http://www.w3.org/2000/svg">
<path d="M556.45 227.25C603.583 227.25 627.15 194.117 627.15 127.85C627.15 61.35 603.583 28.1 556.45 28.1C534.283 28.1 516.2 31.3667 502.2 37.9C489.6 62.8667 483.3 91.6833 483.3 124.35C483.3 156.783 488.667 182.1 499.4 200.3C510.367 218.267 529.383 227.25 556.45 227.25ZM449 128.9C449 87.8333 457.4 56.2167 474.2 34.05C491.233 11.65 518.767 0.449979 556.8 0.449979C595.067 0.449979 622.017 10.7167 637.65 31.25C653.517 51.55 661.45 82.35 661.45 123.65C661.45 164.95 652.933 197.033 635.9 219.9C619.1 242.767 592.15 254.2 555.05 254.2C518.183 254.2 491.233 243.583 474.2 222.35C457.4 201.117 449 169.967 449 128.9Z" fill="#00DBDE"/>
<path d="M66.3 29.15L64.55 113.5H119.85L122.65 88.3C129.183 88.3 136.183 90.2833 143.65 94.25V160.75L131.4 161.8C127.9 151.767 125.567 143.367 124.4 136.6H64.55C64.0833 156.9 63.6167 186.883 63.15 226.55H143.3L151.7 193.65L172 195.05C175.267 208.35 176.9 220.133 176.9 230.4C176.9 240.433 176.667 246.967 176.2 250H6.1L5.05 237.75C15.3167 234.017 25.2333 231.333 34.8 229.7C33.4 138.7 32.2333 71.0333 31.3 26.7C26.1667 26.2333 15.9 23.4333 0.5 18.3L2.25 4.99998H170.95C171.417 8.03332 171.65 12.7 171.65 19C171.65 31.8333 170.017 45.7167 166.75 60.65C161.617 61.8167 154.85 62.4 146.45 62.4L138.05 29.15H66.3Z" fill="#00DBDE"/>
<path d="M326.9 254.55C258.3 254.55 224 211.5 224 125.4C224 84.5667 232.283 53.5333 248.85 32.3C265.65 11.0666 292.367 0.449979 329 0.449979C358.4 0.449979 384.533 8.61665 407.4 24.95C407.4 38.0167 405.767 54.5833 402.5 74.65C399.233 75.35 392.467 75.7 382.2 75.7L371.7 32.3C355.133 29.2667 341.833 27.75 331.8 27.75C313.367 27.75 297.15 30.3167 283.15 35.45L276.5 37.9C275.1 40.2333 273.35 43.7333 271.25 48.4C269.15 52.8333 266.35 62.2833 262.85 76.75C259.583 91.2167 257.95 106.033 257.95 121.2C257.95 154.1 263.317 180.233 274.05 199.6C285.017 218.967 302.4 228.65 326.2 228.65C343.233 228.65 356.067 226.9 364.7 223.4C367.033 222.233 370.417 220.483 374.85 218.15L382.2 176.15L402.5 177.2C406 201.233 407.75 220.717 407.75 235.65C402.85 239.383 392.233 243.467 375.9 247.9C359.8 252.333 343.467 254.55 326.9 254.55Z" fill="#00DBDE"/>
<path d="M497.613 97.4437C498.188 96.6129 498.955 95.9339 499.85 95.4647C500.745 94.9956 501.74 94.7503 502.75 94.75H588.169L595.381 77.4375C596.327 75.1576 597.928 73.2099 599.982 71.8413C602.036 70.4727 604.451 69.7448 606.919 69.75H621.5V82.25H606.919L577.269 153.406C576.794 154.545 575.993 155.517 574.966 156.201C573.94 156.885 572.734 157.25 571.5 157.25H521.5C518.894 157.25 516.563 155.631 515.644 153.2L496.894 103.2C496.54 102.254 496.42 101.236 496.545 100.233C496.67 99.2309 497.037 98.2737 497.613 97.4437ZM525.832 144.75H567.331L582.956 107.25H511.769L525.832 144.75Z" fill="#00DBDE"/>
<path d="M568.375 182.25C563.197 182.25 559 178.053 559 172.875C559 167.697 563.197 163.5 568.375 163.5C573.553 163.5 577.75 167.697 577.75 172.875C577.75 178.053 573.553 182.25 568.375 182.25Z" fill="#00DBDE"/>
<path d="M524.625 182.25C519.448 182.25 515.25 178.053 515.25 172.875C515.25 167.697 519.448 163.5 524.625 163.5C529.803 163.5 534 167.697 534 172.875C534 178.053 529.803 182.25 524.625 182.25Z" fill="#00DBDE"/>
</svg>
